HIERARCHY
ROOT ui
{
	 OFFSET 0 0 0
	 CHANNELS 3 XPosition YPosition Z Position
	 EndSite
	 {
	 OFFSET 0 -1 0
	 }
}
ROOT li
{
	 OFFSET 0 0 0
	 CHANNELS 3 XPosition YPosition Z Position
	 EndSite
	 {
	 OFFSET 0 -1 0
	 }
}
ROOT ul
{
	 OFFSET 0 0 0
	 CHANNELS 3 XPosition YPosition Z Position
	 EndSite
	 {
	 OFFSET 0 -1 0
	 }
}
ROOT ll
{
	 OFFSET 0 0 0
	 CHANNELS 3 XPosition YPosition Z Position
	 EndSite
	 {
	 OFFSET 0 -1 0
	 }
}
ROOT tt
{
	 OFFSET 0 0 0
	 CHANNELS 3 XPosition YPosition Z Position
	 EndSite
	 {
	 OFFSET 0 -1 0
	 }
}
ROOT tb
{
	 OFFSET 0 0 0
	 CHANNELS 3 XPosition YPosition Z Position
	 EndSite
	 {
	 OFFSET 0 -1 0
	 }
}
ROOT td
{
	 OFFSET 0 0 0
	 CHANNELS 3 XPosition YPosition Z Position
	 EndSite
	 {
	 OFFSET 0 -1 0
	 }
}
ROOT v
{
	 OFFSET 0 0 0
	 CHANNELS 3 XPosition YPosition Z Position
	 EndSite
	 {
	 OFFSET 0 -1 0
	 }
}
ROOT bn
{
	 OFFSET 0 0 0
	 CHANNELS 3 XPosition YPosition Z Position
	 EndSite
	 {
	 OFFSET 0 -1 0
	 }
}
MOTION
Frames: 21
Frame Time: 0.002
0.012459345817565918	0.0023107759952545165	0		0.5721614379882812	-2.58956396484375	0		-0.944973388671875	0.2703939208984375	0		-0.13355284118652344	-3.297004638671875	0		1.919458740234375	-1.4038291015625	0		3.3899755859375	-0.4227939147949219	0		4.71232666015625	-0.11280033111572266	0		5.8069111328125	0.23884909057617187	0		-0.3115526123046875	5.869275390625	0		
-0.0070344810485839845	-0.010089691162109376	0		0.555654296875	-2.596026611328125	0		-0.9452813720703125	0.27076751708984376	0		-0.18300074768066407	-3.29699072265625	0		1.8880238037109376	-1.40813623046875	0		3.382506103515625	-0.4324826354980469	0		4.7068955078125	-0.1205650863647461	0		5.7953583984375	0.2550148315429687	0		-0.44495736694335936	5.84844677734375	0		
-2.7186998724937437E-4	-0.002856100082397461	0		0.5671317749023438	-2.60288037109375	0		-0.92563330078125	0.2688573303222656	0		-0.17735588073730468	-3.289737060546875	0		1.94726513671875	-1.4356939697265625	0		3.425838623046875	-0.45587506103515624	0		4.71451708984375	-0.1235132598876953	0		5.81790087890625	0.24754887390136718	0		-0.28054702758789063	5.88654052734375	0		
-0.0074388737678527835	0.010559167861938477	0		0.5339337158203125	-2.58512744140625	0		-0.9408865356445313	0.2754147338867188	0		-0.1876207275390625	-3.275274658203125	0		1.9387332763671874	-1.4453291015625	0		3.4367919921875	-0.43282476806640624	0		4.72133056640625	-0.11145081329345703	0		5.8063388671875	0.2654396057128906	0		-0.309965087890625	5.86727099609375	0		
-0.008072848320007325	-0.009128535270690918	0		0.57828271484375	-2.60045263671875	0		-0.9503460083007812	0.2678792419433594	0		-0.15919552612304688	-3.283357177734375	0		1.9291646728515626	-1.456954833984375	0		3.429896728515625	-0.4705364990234375	0		4.7338017578125	-0.1234671630859375	0		5.79826513671875	0.2711124267578125	0		-0.3111253662109375	5.8686044921875	0		
-0.018302370071411132	0.0013083529472351074	0		0.577840087890625	-2.60016943359375	0		-0.9388458251953125	0.258041259765625	0		-0.2004190979003906	-3.26548876953125	0		1.966461181640625	-1.4782330322265624	0		3.443499755859375	-0.4715281982421875	0		4.727513671875	-0.11722071838378906	0		5.80581640625	0.265892333984375	0		-0.3113258056640625	5.86891259765625	0		
0.006308968067169189	2.517429888248444E-4	0		0.5763728637695312	-2.6018818359375	0		-0.9392116088867187	0.2583541259765625	0		-0.17512734985351563	-3.283552978515625	0		1.96300927734375	-1.4809534912109374	0		3.464808837890625	-0.49363070678710935	0		4.73202685546875	-0.12512260437011719	0		5.80970947265625	0.2452311553955078	0		-0.4448382568359375	5.84905126953125	0		
0.019854757308959962	-0.005664133071899414	0		0.5349326782226562	-2.602049560546875	0		-0.9395753784179688	0.25865362548828125	0		-0.17149069213867188	-3.2773271484375	0		1.9743406982421876	-1.4998858642578126	0		3.46176025390625	-0.46939434814453124	0		4.74061181640625	-0.12807937622070312	0		5.805966796875	0.26116659545898435	0		-0.3107939453125	5.86848046875	0		
0.012674837112426758	0.007698319911956787	0		0.5785829467773438	-2.597404541015625	0		-0.9399308471679687	0.25894012451171877	0		-0.17971072387695314	-3.261947021484375	0		1.9818369140625	-1.5077701416015625	0		3.46994482421875	-0.501321044921875	0		4.75024755859375	-0.12804959106445313	0		5.8057080078125	0.2614203186035156	0		-0.31103289794921873	5.86875390625	0		
-0.016712203979492187	0.005357828140258789	0		0.5502032470703125	-2.595769775390625	0		-0.9453294677734375	0.2552838592529297	0		-0.19199307250976563	-3.252521240234375	0		2.023248291015625	-1.52313232421875	0		3.494751708984375	-0.48947711181640624	0		4.7447861328125	-0.135810546875	0		5.812580078125	0.2597088012695313	0		-0.3112728271484375	5.86901611328125	0		
0.015770036697387694	-0.007853973865509033	0		0.5747543334960937	-2.600880615234375	0		-0.953755615234375	0.24865724182128907	0		-0.19238095092773438	-3.2522724609375	0		1.9998218994140624	-1.5275997314453125	0		3.4891181640625	-0.5102178955078125	0		4.76443408203125	-0.1369218292236328	0		5.801029296875	0.27765032958984376	0		-0.4467742309570312	5.85114697265625	0		
-0.020404956817626954	0.0028801829814910887	0		0.5323591918945313	-2.603070068359375	0		-0.9540694580078125	0.2489058837890625	0		-0.19072068786621094	-3.2500634765625	0		2.06614013671875	-1.5523270263671876	0		3.488792724609375	-0.5100372619628907	0		4.76308642578125	-0.13874656677246094	0		5.80983447265625	0.2360728759765625	0		-0.31075091552734374	5.8684921875	0		
0.018194379806518553	-0.0044407668113708495	0		0.5590060424804687	-2.604232177734375	0		-1.0033325805664062	0.2518241271972656	0		-0.2369923553466797	-3.2441982421875	0		2.036751708984375	-1.5567301025390625	0		3.543076416015625	-0.5396293334960938	0		4.75767431640625	-0.14652252197265625	0		5.81620751953125	0.26550299072265626	0		-0.4301219787597656	5.85837841796875	0		
-9.850590229034423E-4	0.0030325560569763182	0		0.5347643432617187	-2.5986962890625	0		-0.9465438842773437	0.2562508850097656	0		-0.18122251892089844	-3.23776806640625	0		2.05839404296875	-1.5608548583984374	0		3.522322509765625	-0.5011783447265625	0		4.78454443359375	-0.1357549591064453	0		5.8160078125	0.2657301025390625	0		-0.2970283203125	5.8787353515625	0		
0.00374353289604187	0.0021592240333557127	0		0.5734572143554687	-2.600051025390625	0		-0.9599500122070312	0.24564170837402344	0		-0.21448873901367188	-3.235108642578125	0		2.0669072265625	-1.575808349609375	0		3.5335693359375	-0.5361900634765625	0		4.775328125	-0.13249282836914061	0		5.80869140625	0.2661861877441406	0		-0.31135031127929685	5.8691318359375	0		
-0.011615162849426269	-0.0064468770027160645	0		0.5731926879882813	-2.599874267578125	0		-0.9642371215820312	0.2418925323486328	0		-0.18179176330566407	-3.2373837890625	0		2.11853759765625	-1.584375	0		3.536398193359375	-0.5310900268554688	0		4.785853515625	-0.14951681518554688	0		5.8085234375	0.26638729858398436	0		-0.44579718017578124	5.85019384765625	0		
0.014171062469482422	-0.006640078067779541	0		0.5548433837890625	-2.60745751953125	0		-0.9644456787109374	0.2420732727050781	0		-0.24287794494628906	-3.225359375	0		2.07127197265625	-1.5865697021484375	0		3.556053466796875	-0.540236572265625	0		4.77155859375	-0.15520155334472657	0		5.80125048828125	0.26854586791992185	0		-0.31166470336914065	5.86949267578125	0		
-0.02187247848510742	0.004020785808563233	0		0.547813232421875	-2.594208251953125	0		-0.9527713623046875	0.23207389831542968	0		-0.17410368347167968	-3.226164794921875	0		2.13288134765625	-1.6002987060546876	0		3.557085205078125	-0.52412939453125	0		4.7885361328125	-0.14332997131347655	0		5.80770458984375	0.2979091796875	0		-0.31080758666992186	5.86864013671875	0		
0.010047160148620605	0.009719223976135253	0		0.5476282958984375	-2.594066162109375	0		-0.9529306030273438	0.23222962951660156	0		-0.23312049865722656	-3.21319091796875	0		2.132705322265625	-1.600171142578125	0		3.576412841796875	-0.5602913208007813	0		4.79145751953125	-0.13726914978027344	0		5.80045751953125	0.2983145751953125	0		-0.31190130615234374	5.8698037109375	0		
0.013688986778259277	-0.0061983528137207035	0		0.5723995971679687	-2.599283935546875	0		-0.962159423828125	0.22550173950195312	0		-0.16938641357421874	-3.2209482421875	0		2.12541845703125	-1.6099534912109374	0		3.599594482421875	-0.537510009765625	0		4.79899951171875	-0.16028363037109375	0		5.8074931640625	0.29822216796875	0		-0.31198394775390625	5.869943359375	0		
0.002711627006530762	0.00308207893371582	0		0.5344155883789062	-2.5886298828125	0		-0.9563327026367188	0.2205539093017578	0		-0.2520630493164063	-3.187658447265625	0		2.14124169921875	-1.6140694580078125	0		3.584276123046875	-0.552203369140625	0		4.79708984375	-0.1461729736328125	0		5.8100009765625	0.2515494689941406	0		-0.44631707763671874	5.85095458984375	0		
